<?xml version="1.0" standalone="no"?>
<!DOCTYPE svg PUBLIC "-//W3C//DTD SVG 20010904//EN"
 "http://www.w3.org/TR/2001/REC-SVG-20010904/DTD/svg10.dtd">
<svg version="1.0" xmlns="http://www.w3.org/2000/svg"
 width="322.000000pt" height="322.000000pt" viewBox="0 0 322.000000 322.000000"
 preserveAspectRatio="xMidYMid meet">
<metadata>
Created by potrace 1.14, written by Peter Selinger 2001-2017
</metadata>
<g transform="translate(0.000000,322.000000) scale(0.100000,-0.100000)"
fill="#000000" stroke="none">
<path d="M1578 3210 c-9 -5 -33 -40 -53 -77 -21 -38 -130 -236 -242 -442 -113
-205 -215 -392 -227 -415 -13 -22 -37 -66 -53 -96 -17 -30 -53 -95 -80 -145
-28 -49 -130 -236 -228 -415 -98 -179 -188 -344 -201 -368 -202 -365 -274
-502 -274 -524 0 -13 9 -33 20 -43 19 -17 80 -18 1353 -19 732 -1 1345 2 1361
6 16 4 33 13 38 20 13 22 9 65 -11 100 -10 18 -83 150 -161 293 -78 143 -155
283 -170 310 -15 28 -131 239 -258 470 -126 231 -241 440 -255 465 -53 96
-371 676 -411 752 -24 43 -51 90 -62 103 -22 28 -61 39 -86 25z m147 -1255
c236 -62 382 -303 330 -545 -14 -66 -66 -159 -120 -213 -284 -286 -766 -96
-779 308 -4 123 43 236 138 330 117 118 273 161 431 120z"/>
<path d="M115 2326 c-13 -20 -15 -42 -11 -123 3 -54 8 -150 11 -213 8 -189 16
-370 20 -455 2 -44 6 -141 10 -215 9 -215 14 -313 18 -316 1 -2 88 151 191
339 104 188 206 373 227 410 22 38 39 75 39 84 0 8 -48 71 -107 141 -60 70
-115 136 -124 147 -159 194 -185 220 -221 223 -30 3 -40 -2 -53 -22z"/>
<path d="M3007 2327 c-38 -39 -77 -86 -236 -277 -85 -102 -160 -192 -168 -201
-12 -14 -11 -21 6 -50 11 -19 37 -66 58 -105 151 -279 388 -702 391 -699 5 5
7 44 17 265 3 80 7 179 10 220 2 41 7 145 10 230 4 85 8 184 10 220 16 290 16
372 0 396 -21 32 -68 32 -98 1z"/>
<path d="M223 483 c-41 -40 -31 -78 35 -142 132 -127 354 -327 372 -335 29
-13 61 0 111 46 26 24 91 84 145 133 53 50 122 114 153 143 89 83 102 81 218
-28 90 -85 269 -249 302 -277 46 -41 80 -29 172 59 246 235 332 308 360 308
24 0 80 -48 299 -254 124 -117 149 -136 178 -136 29 0 34 4 208 165 238 220
245 228 246 263 1 22 -6 41 -21 55 l-22 22 -1367 0 -1367 1 -22 -23z"/>
</g>
</svg>
