<?xml version="1.0" encoding="UTF-8"?><svg id="Layer_1" xmlns="http://www.w3.org/2000/svg" viewBox="0 0 100 100"><defs><style>.cls-1{fill:#fff;}</style></defs><g id="Group_29895"><path id="Path_31020" class="cls-1" d="m14.45,73.39l2.19,5.82h-4.44l2.25-5.82Zm-.4-1.51l-4.8,11.8h1.16l1.41-3.55h5.19l1.33,3.55h1.21l-4.58-11.8h-.91Z"/><g id="Group_29894"><g id="Group_29893"><path id="Path_31021" class="cls-1" d="m25.39,80.13c0,.44.1.87.28,1.28.16.34.39.64.68.88.3.24.65.41,1.03.51.43.11.88.16,1.33.16.43,0,.87-.05,1.28-.17.37-.1.72-.27,1.03-.49.28-.2.51-.45.68-.75.16-.3.24-.64.24-.99.02-.39-.09-.78-.31-1.1-.21-.29-.49-.53-.8-.7-.35-.2-.73-.35-1.13-.46-.43-.12-.86-.23-1.29-.35-.44-.12-.87-.25-1.29-.4-.4-.14-.78-.33-1.13-.59-.33-.25-.61-.57-.8-.94-.22-.45-.33-.94-.31-1.44-.02-.48.11-.96.36-1.38.23-.37.54-.69.9-.93.37-.25.78-.43,1.21-.53.42-.11.86-.16,1.29-.17.9-.02,1.79.18,2.6.58.78.45,1.36,1.19,1.61,2.06l-1.04.56c-.18-.69-.61-1.28-1.21-1.67-.59-.35-1.27-.52-1.96-.51-.31,0-.62.04-.92.12-.3.08-.59.2-.85.37-.25.16-.46.37-.62.62-.16.25-.25.55-.24.85-.02.38.09.76.31,1.07.21.28.49.51.8.67.36.19.74.33,1.13.43.43.11.86.22,1.29.33.44.11.87.24,1.29.38.4.13.78.32,1.13.57.33.24.61.56.8.92.22.44.32.92.31,1.41.06,1.02-.36,2.02-1.14,2.68-.93.67-2.07,1-3.22.93-.55,0-1.1-.05-1.63-.17-.47-.11-.91-.3-1.31-.56-.39-.27-.71-.61-.95-1.01-.27-.47-.46-.98-.55-1.52l1.13-.58Z"/><path id="Path_31022" class="cls-1" d="m39.66,80.13c0,.44.1.87.28,1.28.16.34.39.64.68.88.3.24.65.41,1.03.51.43.11.88.16,1.33.16.43,0,.87-.05,1.29-.17.37-.1.72-.27,1.03-.49.28-.2.51-.45.68-.75.16-.3.24-.64.24-.99.02-.39-.09-.78-.31-1.1-.21-.29-.49-.53-.8-.7-.35-.2-.73-.35-1.13-.46-.43-.12-.86-.23-1.29-.35-.44-.12-.87-.25-1.29-.4-.4-.14-.78-.33-1.13-.59-.33-.25-.61-.57-.8-.94-.22-.45-.33-.94-.31-1.44-.02-.48.11-.96.36-1.38.23-.37.54-.69.9-.93.37-.25.78-.43,1.21-.53.42-.11.86-.16,1.29-.17.9-.02,1.79.18,2.6.58.78.45,1.36,1.19,1.61,2.06l-1.04.56c-.18-.69-.61-1.28-1.21-1.67-.59-.34-1.27-.52-1.96-.51-.31,0-.62.04-.92.12-.3.08-.59.2-.85.37-.25.16-.46.37-.62.62-.16.25-.25.55-.24.85-.02.38.09.76.31,1.07.21.28.49.51.8.67.36.19.74.33,1.13.43.42.11.86.22,1.29.33.44.11.87.24,1.29.38.4.13.78.32,1.13.57.33.24.61.56.8.92.22.44.32.92.31,1.41.06,1.02-.36,2.02-1.14,2.68-.93.67-2.07,1-3.22.93-.55,0-1.1-.05-1.63-.17-.47-.11-.91-.3-1.31-.56-.39-.27-.71-.61-.95-1.01-.27-.47-.46-.98-.55-1.52l1.13-.58Z"/><path id="Path_31023" class="cls-1" d="m62.01,79.85c.01.61-.09,1.21-.31,1.78-.19.49-.49.94-.88,1.29-.4.36-.87.63-1.38.79-1.16.35-2.4.35-3.56,0-.51-.16-.98-.43-1.38-.79-.39-.36-.69-.8-.88-1.29-.21-.57-.32-1.17-.31-1.78v-7.97h1.13v7.94c-.01.5.07,1,.26,1.46.3.75.93,1.3,1.71,1.51.82.22,1.68.22,2.5,0,.78-.2,1.41-.76,1.71-1.51.18-.46.27-.96.26-1.46v-7.94h1.13v7.97Z"/><path id="Path_31024" class="cls-1" d="m68.41,71.88h5.22c.54-.01,1.07.08,1.57.28.41.17.77.42,1.07.74.28.3.49.66.61,1.05.13.39.2.8.2,1.21.06.87-.28,1.73-.93,2.32-.72.57-1.61.89-2.54.91l3.78,5.29h-1.43l-3.74-5.24h-2.69v5.24h-1.13v-11.8Zm1.13,5.54h3.5c.49.02.99-.05,1.46-.21.33-.11.63-.29.89-.53.21-.2.36-.45.45-.72.08-.26.12-.53.12-.8.03-.61-.19-1.2-.61-1.64-.6-.47-1.36-.69-2.12-.61h-3.68v4.51Z"/><path id="Path_31025" class="cls-1" d="m82.68,71.88h7.73v1.03h-6.6v4.18h5.95v1.03h-5.95v4.54h6.95v1.03h-8.07v-11.8Z"/><path id="Path_31026" class="cls-1" d="m37.43,89.14h2.74c.32,0,.64.05.95.15.26.09.51.23.72.41.2.17.38.38.51.61.14.23.25.48.34.73.08.26.15.52.18.79.04.26.05.52.05.79,0,.39-.05.78-.14,1.17-.09.4-.25.79-.48,1.13-.23.35-.54.64-.9.85-.43.24-.92.36-1.42.34h-2.55v-6.97Zm.67,6.36h1.85c.38.01.76-.08,1.09-.25.29-.16.53-.39.71-.66.18-.28.32-.59.39-.92.08-.34.12-.69.12-1.04,0-.33-.04-.67-.11-.99-.07-.33-.19-.64-.36-.93-.17-.28-.4-.51-.67-.68-.31-.19-.67-.28-1.03-.27h-1.99v5.76Z"/><path id="Path_31027" class="cls-1" d="m46.44,89.14h4.56v.61h-3.9v2.47h3.51v.61h-3.51v2.68h4.1v.61h-4.77v-6.97Z"/><path id="Path_31028" class="cls-1" d="m54.69,89.14h4.54v.61h-3.88v2.33h3.47v.61h-3.47v3.43h-.67v-6.97Z"/><rect id="Rectangle_9469" class="cls-1" x="62.7" y="89.14" width=".67" height="6.97"/><path id="Path_31029" class="cls-1" d="m44.82,16.36l5.09-12.48h.64l18.36,44.94c1.01,2.48,2.41,4.79,4.13,6.83,1.56,1.83,2.94,2.74,4.13,2.74v.64h-22.41v-.64c1.48,0,2.57-1.09,3.26-3.26.29-.91.44-1.86.44-2.82-.03-1.59-.34-3.16-.91-4.65l-2.3-5.64-.28-.64h.04l-9.89-24.2-.28-.84Z"/><path id="Path_31030" class="cls-1" d="m86.65,4.29h-.85v2.49h-.52v-2.49h-.85v-.41h2.22v.41Z"/><path id="Path_31031" class="cls-1" d="m90.76,3.89v2.9h-.52v-2.28s0,0,0,0l-.86,2.28h-.41l-.81-2.28h0v2.27s-.48,0-.48,0v-2.89h.71l.8,2.28h.01l.85-2.28h.71Z"/><path id="Path_31032" class="cls-1" d="m49.45,44.49c-7.35,0-13.31,6.49-13.31,14.49,0-8-5.96-14.49-13.31-14.49,7.35,0,13.31-6.49,13.31-14.49,0,8,5.96,14.49,13.31,14.49"/></g></g></g></svg>