<?xml version="1.0" encoding="UTF-8"?><svg id="Layer_2" xmlns="http://www.w3.org/2000/svg" xmlns:xlink="http://www.w3.org/1999/xlink" viewBox="0 0 70.16 21.33"><defs><style>.cls-1{fill:none;}.cls-2{clip-path:url(#clippath);}.cls-3{fill:#fff;}.cls-4{fill:#06f471;}</style><clipPath id="clippath"><rect class="cls-1" width="70.16" height="21.33"/></clipPath></defs><g id="Layer_1-2"><g><g id="Group_30321"><g class="cls-2"><g id="Group_30320"><path id="Path_31245" class="cls-4" d="m0,0h59.49c5.89.06,10.62,4.88,10.56,10.77-.06,5.81-4.75,10.51-10.56,10.56H0V0Z"/><path id="Path_31246" class="cls-3" d="m27.33,7.07h1.5l3.16,7.42h-1.7l-.67-1.65h-3.12l-.67,1.65h-1.65l3.16-7.42Zm1.71,4.34l-.98-2.39-.98,2.39h1.96Z"/><path id="Path_31247" class="cls-3" d="m32.64,11.33v-4.21h1.62v4.17c0,1.21.59,1.82,1.59,1.82s1.59-.59,1.59-1.77v-4.22h1.62v4.15c.21,1.63-.94,3.11-2.57,3.32-.22.03-.44.03-.66,0-1.6.16-3.04-1.01-3.2-2.61-.02-.22-.02-.44,0-.66"/><path id="Path_31248" class="cls-3" d="m40.61,7.12h2.87c2.02-.13,3.77,1.4,3.91,3.42,0,.08,0,.16,0,.24v.02c0,2.04-1.65,3.69-3.69,3.69-.08,0-.15,0-.23,0h-2.87v-7.37Zm1.62,1.46v4.44h1.25c1.16.07,2.15-.82,2.22-1.98,0-.07,0-.14,0-.22v-.02c.06-1.17-.85-2.17-2.02-2.22-.07,0-.14,0-.2,0h-1.25Z"/><rect id="Rectangle_9817" class="cls-3" x="48.81" y="7.12" width="1.62" height="7.37"/><path id="Path_31249" class="cls-3" d="m53.89,8.61h-2.24v-1.5h6.11v1.5h-2.24v5.87h-1.62v-5.87Z"/><path id="Path_31250" class="cls-3" d="m12.1,2.63c4.36,0,7.9,3.54,7.9,7.9s-3.54,7.9-7.9,7.9-7.9-3.54-7.9-7.9h0c0-4.36,3.54-7.9,7.9-7.9h0"/></g></g></g><path id="Path_31219" class="cls-4" d="m15.78,6.88l-4.82,4.84-1.91-1.92-1.22,1.22,3.13,3.14,5.93-5.96v-.2l-1.12-1.12Z"/></g></g></svg>