<?xml version="1.0" encoding="UTF-8"?><svg id="Layer_2" xmlns="http://www.w3.org/2000/svg" xmlns:xlink="http://www.w3.org/1999/xlink" viewBox="0 0 70.16 21.33"><defs><style>.cls-1{fill:none;}.cls-2{clip-path:url(#clippath);}.cls-3{fill:#fff;}.cls-4{fill-rule:evenodd;}</style><clipPath id="clippath"><rect class="cls-1" width="70.16" height="21.33"/></clipPath></defs><g id="Layer_1-2"><g id="Group_30321"><g class="cls-2"><g id="Group_30320"><path id="Path_31245" d="m0,0h59.49c5.89.06,10.62,4.88,10.56,10.77-.06,5.81-4.75,10.51-10.56,10.56H0V0Z"/><path id="Path_31246" class="cls-3" d="m27.33,7.07h1.5l3.16,7.42h-1.7l-.67-1.65h-3.12l-.67,1.65h-1.65l3.16-7.42Zm1.71,4.34l-.98-2.39-.98,2.39h1.96Z"/><path id="Path_31247" class="cls-3" d="m32.64,11.33v-4.21h1.62v4.17c0,1.21.59,1.82,1.59,1.82s1.59-.59,1.59-1.77v-4.22h1.62v4.15c.21,1.63-.94,3.11-2.57,3.32-.22.03-.44.03-.66,0-1.6.16-3.04-1.01-3.2-2.61-.02-.22-.02-.44,0-.66"/><path id="Path_31248" class="cls-3" d="m40.61,7.12h2.87c2.02-.13,3.77,1.4,3.91,3.42,0,.08,0,.16,0,.24v.02c0,2.04-1.65,3.69-3.69,3.69-.08,0-.15,0-.23,0h-2.87v-7.37Zm1.62,1.46v4.44h1.25c1.16.07,2.15-.82,2.22-1.98,0-.07,0-.14,0-.22v-.02c.06-1.17-.85-2.17-2.02-2.22-.07,0-.14,0-.2,0h-1.25Z"/><rect id="Rectangle_9817" class="cls-3" x="48.81" y="7.12" width="1.62" height="7.37"/><path id="Path_31249" class="cls-3" d="m53.89,8.61h-2.24v-1.5h6.11v1.5h-2.24v5.87h-1.62v-5.87Z"/><path id="Path_31250" class="cls-3" d="m12.1,2.63c4.36,0,7.9,3.54,7.9,7.9s-3.54,7.9-7.9,7.9-7.9-3.54-7.9-7.9h0c0-4.36,3.54-7.9,7.9-7.9h0"/><path id="Path_31251" class="cls-4" d="m15.95,7.06l.05.32c.04.3.06.6.05.9,0,.66-.08,1.32-.23,1.97-.2.87-.56,1.7-1.06,2.45-.67.99-1.57,1.8-2.61,2.37l-.15.08-.15-.08c-1.86-1-3.2-2.76-3.68-4.82-.15-.65-.23-1.31-.23-1.97,0-.3.01-.6.05-.9l.05-.32s0-.05,0-.08c0-.03-.02-.05-.04-.07-.01-.02-.03-.04-.05-.05-.02-.01-.04-.02-.07-.03-.02,0-.05,0-.07,0-.03,0-.05.02-.07.03-.02.01-.04.03-.05.05-.01.02-.02.05-.03.08l-.05.32c-.04.32-.06.64-.06.96,0,.7.08,1.39.24,2.07.5,2.17,1.92,4.02,3.88,5.08l.24.13s.06.02.1.02c.03,0,.07,0,.1-.02l.24-.13c1.96-1.06,3.38-2.91,3.88-5.08.16-.68.24-1.37.24-2.07,0-.32-.02-.65-.06-.97l-.05-.32s-.01-.05-.03-.08c-.01-.02-.03-.04-.05-.05-.02-.01-.04-.03-.07-.03-.02,0-.05,0-.08,0-.03,0-.05.02-.07.03-.02.01-.04.03-.05.05-.01.02-.03.05-.03.07v.09Z"/><path id="Path_31252" class="cls-4" d="m9.1,6.84l2.9-.91,2.95.93s.05,0,.07,0c.03,0,.05,0,.07-.02.02-.01.04-.03.06-.05.02-.02.03-.04.03-.07,0-.03,0-.05,0-.08,0-.03,0-.05-.02-.08-.01-.02-.03-.04-.05-.06-.02-.02-.04-.03-.07-.03l-3.02-.95s-.08-.01-.11,0l-2.95.93s-.05.02-.07.03c-.02.02-.04.04-.05.06-.01.02-.02.05-.02.08,0,.02,0,.05,0,.07,0,.03.02.05.03.07.02.02.04.04.06.05.02.01.05.02.07.02.02,0,.05,0,.07,0"/><path id="Path_31253" class="cls-4" d="m7.68,7.12l4.14,8.35s.04.06.07.08c.06.04.14.04.2,0,.03-.02.06-.05.07-.08l2.53-4.88h0s1.62-3.48,1.62-3.48c.01-.02.02-.05.02-.08,0-.03,0-.05-.01-.08,0-.03-.02-.05-.04-.07-.02-.02-.04-.04-.06-.05-.02-.01-.05-.02-.08-.02-.02,0-.05,0-.07,0-.03,0-.05.02-.07.04-.02.02-.04.04-.05.06l-1.61,3.47-2.35,4.54-3.97-8.01s-.03-.04-.05-.06c-.02-.02-.04-.03-.07-.04-.02-.01-.05-.02-.07,0-.03,0-.05,0-.07.02-.02.01-.04.03-.06.05-.01.02-.03.05-.03.07,0,.02-.01.05,0,.08,0,.03,0,.06.02.08"/><path id="Path_31254" class="cls-4" d="m9.66,10.84h4.61s.05,0,.07-.01c.02,0,.04-.02.06-.04.02-.02.03-.04.04-.06.02-.05.02-.1,0-.15-.01-.02-.02-.04-.04-.06-.02-.02-.04-.03-.06-.04-.02,0-.05-.01-.07-.01h-4.61s-.05,0-.07.01c-.02,0-.04.02-.06.04-.02.02-.03.04-.04.06-.02.05-.02.1,0,.15,0,.02.02.05.04.06.02.02.04.03.06.04.02,0,.05.01.07.01"/></g></g></g></g></svg>