<?xml version="1.0" encoding="UTF-8"?><svg id="Layer_2" xmlns="http://www.w3.org/2000/svg" xmlns:xlink="http://www.w3.org/1999/xlink" viewBox="0 0 70.16 21.33"><defs><style>.cls-1{fill:none;}.cls-2{clip-path:url(#clippath);}.cls-3{fill:#f9604b;}.cls-4{fill:#fff;}</style><clipPath id="clippath"><rect class="cls-1" width="70.16" height="21.33"/></clipPath></defs><g id="Layer_1-2"><g id="Group_30313"><g class="cls-2"><g id="Group_30312"><path id="Path_31212" class="cls-3" d="m0,0h59.49c5.89.06,10.62,4.88,10.56,10.77-.06,5.81-4.75,10.51-10.56,10.56H0V0Z"/><path id="Path_31213" class="cls-4" d="m24.62,7.27h3.42c.7-.05,1.4.18,1.93.65.33.33.52.78.5,1.25v.02c.02.67-.36,1.3-.97,1.59.83.2,1.4.96,1.38,1.81v.02c0,1.35-1.09,2.02-2.76,2.02h-3.5v-7.37Zm4.24,2.18c0-.49-.38-.76-1.06-.76h-1.6v1.56h1.5c.72,0,1.17-.23,1.17-.78v-.02Zm.41,2.95c0-.49-.36-.8-1.2-.8h-1.87v1.62h1.93c.72,0,1.15-.25,1.15-.8v-.02Z"/><path id="Path_31214" class="cls-4" d="m31.79,10.98v-.02c.05-2.16,1.85-3.87,4.01-3.82,2.08.05,3.76,1.72,3.82,3.8v.02c-.05,2.16-1.85,3.87-4.01,3.82-2.08-.05-3.76-1.72-3.82-3.8m6.14,0v-.02c.04-1.24-.92-2.27-2.16-2.31-.02,0-.05,0-.07,0-1.22,0-2.21.97-2.21,2.19,0,.04,0,.08,0,.11v.02c-.04,1.24.92,2.27,2.16,2.31.02,0,.05,0,.07,0,1.22,0,2.21-.97,2.21-2.19,0-.04,0-.08,0-.11"/><path id="Path_31215" class="cls-4" d="m40.63,10.98v-.02c.05-2.16,1.85-3.87,4.01-3.82,2.08.05,3.76,1.72,3.82,3.8v.02c-.05,2.16-1.85,3.87-4.01,3.82-2.08-.05-3.76-1.72-3.82-3.8m6.14,0v-.02c.04-1.24-.92-2.27-2.16-2.31-.02,0-.05,0-.07,0-1.22,0-2.21.97-2.21,2.19,0,.04,0,.08,0,.11v.02c-.04,1.24.92,2.27,2.16,2.31.02,0,.05,0,.07,0,1.22,0,2.21-.97,2.21-2.19,0-.04,0-.08,0-.11"/><path id="Path_31216" class="cls-4" d="m49.25,13.57l.96-1.15c.6.55,1.38.87,2.2.89.67,0,1.06-.26,1.06-.69v-.02c0-.41-.25-.63-1.49-.94-1.5-.37-2.44-.8-2.44-2.25v-.02c.03-1.27,1.09-2.27,2.36-2.24.07,0,.15,0,.22.02.99-.02,1.96.32,2.74.94l-.84,1.22c-.55-.43-1.22-.68-1.92-.72-.63,0-.95.27-.95.64v.02c0,.49.31.63,1.59.97,1.49.4,2.34.93,2.34,2.21v.02c0,1.46-1.12,2.28-2.7,2.28-1.15.01-2.27-.41-3.13-1.18"/><path id="Path_31217" class="cls-4" d="m57.94,8.77h-2.24v-1.5h6.11v1.5h-2.24v5.87h-1.62v-5.87Z"/><path id="Path_31218" class="cls-4" d="m12.1,2.63c4.36,0,7.9,3.54,7.9,7.9s-3.54,7.9-7.9,7.9-7.9-3.54-7.9-7.9h0c0-4.36,3.54-7.9,7.9-7.9h0"/><path id="Path_31219" class="cls-3" d="m15.4,7.18l-4.82,4.84-1.91-1.92-1.22,1.22,3.13,3.14,5.93-5.96v-.2l-1.12-1.12Z"/></g></g></g></g></svg>