<?xml version="1.0" encoding="UTF-8"?><svg id="Layer_1" xmlns="http://www.w3.org/2000/svg" viewBox="0 0 100 100"><defs><style>.cls-1,.cls-2{fill:#fff;}.cls-2{fill-rule:evenodd;}</style></defs><g id="Group_30185"><g id="Group_30184"><path id="Path_31053" class="cls-2" d="m78.93,12.99l.39,2.36c.3,2.16.44,4.35.39,6.53.01,4.83-.55,9.65-1.68,14.35-1.5,6.37-4.12,12.42-7.76,17.87-4.9,7.17-11.42,13.09-19.04,17.26l-1.08.61-1.09-.61c-13.57-7.32-23.33-20.11-26.8-35.13-1.13-4.7-1.69-9.52-1.68-14.35-.02-2.18.11-4.37.39-6.53l.35-2.36c.05-.18.05-.38,0-.56-.03-.19-.12-.37-.25-.51-.11-.15-.24-.29-.39-.39-.15-.09-.32-.16-.49-.2-.18-.06-.37-.06-.55,0-.19.03-.36.12-.5.25-.15.11-.29.24-.39.39-.1.18-.16.37-.2.56l-.39,2.36c-.3,2.32-.44,4.66-.44,6.99,0,5.07.59,10.13,1.78,15.06.79,3.36,1.88,6.64,3.26,9.8,5.03,11.61,13.83,21.19,24.99,27.17l1.73.97c.22.1.45.16.69.15.24,0,.47-.05.69-.15l1.73-.97c8.02-4.37,14.89-10.58,20.04-18.13,3.85-5.74,6.63-12.12,8.21-18.84,1.17-4.93,1.76-9.99,1.75-15.06,0-2.36-.15-4.71-.44-7.05l-.39-2.36c-.04-.19-.11-.38-.2-.56-.11-.15-.24-.29-.39-.39-.15-.1-.32-.19-.5-.26-.18-.05-.37-.05-.54,0-.19.05-.37.12-.55.21-.16.09-.3.23-.39.39-.1.16-.18.33-.24.51v.62Z"/><path id="Path_31054" class="cls-2" d="m29.08,11.4l21.07-6.64,21.51,6.79c.18.04.36.06.54.05.19,0,.38-.05.54-.15.17-.09.32-.21.45-.36.13-.14.22-.32.25-.51.04-.18.05-.37.05-.56,0-.2-.05-.39-.15-.57-.09-.17-.2-.33-.35-.46-.14-.13-.31-.22-.5-.26L50.54,1.81c-.27-.11-.57-.11-.84,0l-21.47,6.79c-.18.05-.35.14-.5.26-.15.12-.27.28-.35.46-.1.17-.15.37-.15.57-.01.19,0,.38.05.56.05.18.13.36.24.51.12.16.27.28.45.36.16.1.35.15.54.15.18,0,.37-.01.55-.05"/><path id="Path_31055" class="cls-2" d="m18.69,13.45l30.17,60.81c.09.24.27.44.49.57.46.27,1.03.27,1.49,0,.23-.13.42-.33.54-.57l18.4-35.54.05-.05,11.76-25.27c.08-.18.13-.37.15-.56.02-.19-.02-.39-.1-.56-.05-.19-.15-.37-.3-.51-.11-.16-.27-.28-.44-.36-.16-.1-.35-.15-.55-.15-.18,0-.37,0-.54.06-.19.05-.37.15-.5.3-.15.12-.27.28-.35.46l-11.77,25.27-17.11,33.09L21.22,12.07c-.1-.16-.22-.32-.35-.46-.14-.13-.31-.23-.5-.3-.17-.1-.36-.12-.55-.06-.19,0-.38.06-.54.15-.16.1-.31.22-.44.36-.11.15-.19.33-.25.51-.07.18-.08.37-.05.56,0,.21.05.42.15.61"/><path id="Path_31056" class="cls-2" d="m33.13,40.51h33.58c.18-.01.37-.05.54-.1.17-.06.33-.17.44-.31.13-.13.23-.29.3-.46.13-.36.13-.76,0-1.12-.07-.17-.17-.33-.3-.46-.12-.14-.27-.24-.44-.31-.17-.06-.36-.1-.54-.1h-33.58c-.19,0-.37.05-.55.1-.17.06-.33.17-.44.31-.13.13-.23.29-.3.46-.13.36-.13.76,0,1.12.06.18.16.34.3.46.12.14.27.24.44.31.18.06.36.1.55.1"/><path id="Path_31057" class="cls-2" d="m17.16,88.5h-8.84c-.08,0-.15.02-.22.04-.07.02-.13.07-.18.12-.05.05-.09.12-.12.19-.02.07-.04.15-.04.23v7.33c0,.08.02.15.04.23.02.07.06.14.12.19.05.05.11.09.18.12.07.03.15.04.22.04h8.84v1.24h-8.84c-.11,0-.23-.02-.34-.04-.12-.02-.23-.06-.34-.1-.11-.04-.21-.09-.3-.16-.09-.07-.18-.14-.26-.23-.16-.16-.29-.36-.38-.58-.05-.11-.08-.23-.1-.35-.02-.12-.03-.23-.04-.35v-7.31c0-.12.02-.24.04-.35.03-.12.06-.24.1-.35.04-.11.09-.22.16-.31.06-.1.13-.19.22-.27.08-.08.17-.16.26-.23.09-.07.19-.12.3-.16.11-.05.22-.08.34-.1.11-.02.23-.04.34-.04h8.84v1.21h0Z"/><path id="Path_31058" class="cls-2" d="m33.75,87.26v1.24h-8.5v3.64h6.84v1.26h-6.84v3.64h8.5v1.24h-9.7v-11.01h9.7Z"/><path id="Path_31059" class="cls-1" d="m51.27,89.12v3.22c0,.12-.02.24-.04.35-.03.12-.06.24-.1.35-.04.11-.09.22-.16.31-.07.09-.14.18-.22.27-.08.08-.17.16-.26.23-.1.06-.2.11-.3.16-.11.05-.22.08-.34.1-.11.02-.23.04-.34.04h-1.62l3.34,4.09h-1.59l-3.32-4.09h-3.89c-.19,0-.39-.02-.58-.06v4.15h-1.2v-10.96h8.86c.11,0,.23.02.34.04.12.03.23.06.34.1.11.04.21.1.3.17.19.14.35.3.48.49.06.1.11.21.16.31.05.11.08.23.1.35.02.12.04.24.04.36m-8.86,3.81h7.1c.08,0,.15-.02.22-.04.07-.02.14-.06.18-.12.05-.05.09-.12.12-.19.03-.07.04-.15.04-.23v-3.22c0-.15-.05-.3-.16-.41-.1-.12-.25-.19-.4-.19h-7.1c-.08,0-.15.02-.22.04-.07.02-.13.07-.18.12-.05.05-.09.12-.12.19-.02.07-.04.15-.04.23v3.22c0,.16.06.31.18.42.09.12.23.19.38.19"/><path id="Path_31060" class="cls-2" d="m57.63,87.26h10.62v1.24h-4.7v9.75h-1.2v-9.75h-4.72v-1.24Zm17.08,0h1.2v10.99h-1.2v-10.99Zm17.17,0h1.54l-4.44,5.49,4.46,5.49h-1.56l-3.96-4.87h-3.42v4.87h-1.2v-10.99h1.22v4.87h3.42l3.94-4.87Z"/></g></g></svg>