<?xml version="1.0" encoding="UTF-8"?><svg id="Layer_2" xmlns="http://www.w3.org/2000/svg" xmlns:xlink="http://www.w3.org/1999/xlink" viewBox="0 0 95.28 21.33"><defs><style>.cls-1{fill:none;}.cls-2{clip-path:url(#clippath);}.cls-3{fill:#fff;}.cls-4{fill:#ffcd2e;}</style><clipPath id="clippath"><rect class="cls-1" width="95.28" height="21.33"/></clipPath></defs><g id="Layer_1-2"><g id="Group_30315"><g class="cls-2"><g id="Group_30314"><path id="Path_31220" class="cls-4" d="m0,0h84.62c5.89.06,10.62,4.88,10.56,10.77-.06,5.81-4.75,10.51-10.56,10.56H0V0Z"/><path id="Path_31221" class="cls-3" d="m26.91,6.99h5.56v1.44h-3.95v1.49h3.47v1.44h-3.47v1.55h4v1.44h-5.61v-7.37Z"/><path id="Path_31222" class="cls-3" d="m33.86,6.99h1.49l3.45,4.54v-4.54h1.6v7.37h-1.38l-3.57-4.68v4.68h-1.6v-7.37Z"/><path id="Path_31223" class="cls-3" d="m42.07,6.99h2.87c2.02-.13,3.77,1.4,3.91,3.42,0,.08,0,.16,0,.24v.02c0,2.04-1.65,3.69-3.69,3.69-.08,0-.15,0-.23,0h-2.87v-7.37Zm1.62,1.46v4.44h1.25c1.16.07,2.15-.82,2.22-1.98,0-.07,0-.14,0-.22v-.02c.06-1.17-.85-2.16-2.02-2.22-.07,0-.14,0-.2,0h-1.25Z"/><path id="Path_31224" class="cls-3" d="m49.87,10.7v-.02c.05-2.16,1.85-3.87,4.01-3.82,2.08.05,3.76,1.72,3.82,3.8v.02c-.05,2.16-1.85,3.87-4.01,3.82-2.08-.05-3.76-1.72-3.82-3.8m6.14,0v-.02c.04-1.24-.92-2.27-2.16-2.31-.02,0-.05,0-.07,0-1.22,0-2.21.97-2.21,2.19,0,.04,0,.08,0,.11v.02c-.04,1.24.93,2.27,2.17,2.31.02,0,.04,0,.07,0,1.22,0,2.21-.97,2.21-2.19,0-.04,0-.08,0-.11"/><path id="Path_31225" class="cls-3" d="m59.04,6.99h3.37c.79-.05,1.56.22,2.15.75.43.45.66,1.06.63,1.69v.02c.05,1.03-.6,1.97-1.58,2.28l1.8,2.63h-1.9l-1.58-2.36h-1.27v2.36h-1.62v-7.37Zm3.26,3.58c.8,0,1.24-.41,1.24-1.04v-.02c0-.71-.47-1.05-1.27-1.05h-1.61v2.12h1.64Z"/><path id="Path_31226" class="cls-3" d="m66.05,13.29l.95-1.15c.6.55,1.38.87,2.2.89.67,0,1.06-.26,1.06-.69v-.02c0-.41-.25-.63-1.49-.94-1.5-.37-2.44-.8-2.44-2.25v-.02c.03-1.27,1.09-2.27,2.36-2.24.07,0,.15,0,.22.02.99-.02,1.96.32,2.74.94l-.84,1.22c-.55-.43-1.22-.68-1.91-.73-.63,0-.95.27-.95.64v.02c0,.49.32.63,1.59.97,1.5.4,2.34.93,2.34,2.21v.02c0,1.46-1.12,2.28-2.71,2.28-1.15.01-2.27-.41-3.13-1.18"/><path id="Path_31227" class="cls-3" d="m73.18,6.99h5.56v1.44h-3.94v1.49h3.47v1.44h-3.47v1.55h4v1.44h-5.62v-7.37Z"/><path id="Path_31228" class="cls-3" d="m80.13,6.99h2.87c2.02-.13,3.77,1.4,3.91,3.42,0,.08,0,.16,0,.24v.02c0,2.04-1.65,3.69-3.69,3.69-.08,0-.15,0-.23,0h-2.87v-7.37Zm1.62,1.46v4.44h1.25c1.16.07,2.15-.82,2.22-1.98,0-.07,0-.14,0-.22v-.02c.06-1.17-.85-2.16-2.02-2.22-.07,0-.14,0-.2,0h-1.25Z"/><path id="Path_31229" class="cls-3" d="m12.1,2.63c4.36,0,7.9,3.54,7.9,7.9s-3.54,7.9-7.9,7.9-7.9-3.54-7.9-7.9h0c0-4.36,3.54-7.9,7.9-7.9h0"/><path id="Path_31230" class="cls-4" d="m15.4,7.18l-4.82,4.84-1.91-1.92-1.22,1.22,3.13,3.14,5.93-5.96v-.2l-1.12-1.12Z"/></g></g></g></g></svg>