<?xml version="1.0" encoding="UTF-8"?><svg id="Layer_2" xmlns="http://www.w3.org/2000/svg" xmlns:xlink="http://www.w3.org/1999/xlink" viewBox="0 0 91.97 21.33"><defs><style>.cls-1{fill:none;}.cls-2{clip-path:url(#clippath);}.cls-3{fill:#fff;}.cls-4{fill:#ff94c5;}</style><clipPath id="clippath"><rect class="cls-1" width="91.97" height="21.33"/></clipPath></defs><g id="Layer_1-2"><g id="Group_30311"><g class="cls-2"><g id="Group_30310"><path id="Path_31203" class="cls-4" d="m0,0h81.31c5.89.06,10.62,4.88,10.56,10.77-.06,5.81-4.75,10.51-10.56,10.56H0V0Z"/><rect id="Rectangle_9810" class="cls-3" x="29.29" y="6.99" width="1.62" height="7.37"/><path id="Path_31204" class="cls-3" d="m32.65,6.99h1.49l3.45,4.54v-4.54h1.6v7.37h-1.38l-3.57-4.68v4.68h-1.6v-7.37Z"/><path id="Path_31205" class="cls-3" d="m43.91,6.99h1.62v2.92h2.99v-2.92h1.62v7.37h-1.62v-2.96h-2.99v2.96h-1.62v-7.37Z"/><path id="Path_31206" class="cls-3" d="m51.48,10.7v-.02c.05-2.16,1.85-3.87,4.01-3.82,2.08.05,3.76,1.72,3.82,3.8v.02c-.05,2.16-1.85,3.87-4.01,3.82-2.08-.05-3.76-1.72-3.82-3.8m6.14,0v-.02c.04-1.24-.92-2.27-2.16-2.31-.02,0-.05,0-.07,0-1.22,0-2.21.97-2.21,2.19,0,.04,0,.08,0,.11v.02c-.04,1.24.92,2.27,2.16,2.31.02,0,.05,0,.07,0,1.22,0,2.21-.97,2.21-2.19,0-.04,0-.08,0-.11"/><path id="Path_31207" class="cls-3" d="m60.54,11.2v-4.21h1.62v4.17c0,1.21.59,1.82,1.59,1.82s1.59-.59,1.59-1.77v-4.22h1.62v4.16c.21,1.63-.94,3.11-2.57,3.32-.22.03-.44.03-.66,0-1.6.16-3.04-1.01-3.2-2.61-.02-.22-.02-.44,0-.66"/><path id="Path_31208" class="cls-3" d="m68,13.29l.96-1.15c.6.55,1.38.87,2.2.89.67,0,1.06-.26,1.06-.69v-.02c0-.41-.25-.63-1.49-.94-1.5-.37-2.44-.8-2.44-2.25v-.02c.03-1.27,1.09-2.27,2.36-2.24.07,0,.15,0,.22.02.99-.02,1.96.32,2.74.94l-.84,1.22c-.55-.43-1.22-.68-1.92-.73-.63,0-.95.27-.95.64v.02c0,.49.32.63,1.59.97,1.5.4,2.34.93,2.34,2.21v.02c0,1.46-1.11,2.28-2.71,2.28-1.15.01-2.27-.41-3.13-1.18"/><path id="Path_31209" class="cls-3" d="m75.14,6.99h5.56v1.44h-3.95v1.49h3.47v1.44h-3.47v1.55h4v1.44h-5.61v-7.37Z"/><path id="Path_31210" class="cls-3" d="m12.1,2.63c4.36,0,7.9,3.54,7.9,7.9s-3.54,7.9-7.9,7.9-7.9-3.54-7.9-7.9h0c0-4.36,3.54-7.9,7.9-7.9h0"/><path id="Path_31211" class="cls-4" d="m15.4,7.18l-4.82,4.84-1.91-1.92-1.22,1.22,3.13,3.14,5.93-5.96v-.2l-1.12-1.12Z"/></g></g></g></g></svg>