<?xml version="1.0" encoding="UTF-8"?><svg id="Layer_1" xmlns="http://www.w3.org/2000/svg" xmlns:xlink="http://www.w3.org/1999/xlink" viewBox="0 0 30 30"><defs><style>.cls-1{fill:none;}.cls-2{clip-path:url(#clippath);}.cls-3{fill:#997fb3;}</style><clipPath id="clippath"><rect class="cls-1" x=".46" y="2.36" width="28.68" height="25.33"/></clipPath></defs><g class="cls-2"><g id="Group_30623"><path id="Path_31349" class="cls-3" d="m14.8,27.68c-.32,0-.63-.06-.92-.18-.3-.13-.57-.33-.77-.59L.96,12.32c-.27-.34-.43-.74-.48-1.17-.05-.42.03-.85.22-1.23L3.84,3.57c.19-.36.48-.67.83-.89.35-.22.75-.34,1.17-.33h17.94c.41,0,.81.11,1.16.33.35.22.64.52.83.89l3.14,6.35c.19.38.27.81.22,1.23-.05.43-.21.83-.48,1.16l-12.15,14.59c-.21.26-.47.46-.77.59-.29.12-.61.19-.92.18m-4.5-17.57h9.01l-2.77-5.54h-3.47l-2.77,5.54Zm3.4,14.07v-11.85H3.84l9.86,11.85Zm2.22,0l9.85-11.85h-9.85v11.85Zm5.87-14.07h4.65l-2.81-5.54h-4.61l2.77,5.54Zm-18.61,0h4.65l2.77-5.54h-4.62l-2.8,5.54Z"/></g></g></svg>