<?xml version="1.0" encoding="UTF-8"?><svg id="Layer_1" xmlns="http://www.w3.org/2000/svg" viewBox="0 0 30 30"><defs><style>.cls-1{fill:#fcd482;}</style></defs><g id="Group_30622"><path id="Path_31348" class="cls-1" d="m8.71,25.17l6.29-3.77,6.29,3.81-1.68-7.13,5.53-4.81-7.29-.64-2.84-6.73-2.84,6.69-7.29.64,5.53,4.81-1.68,7.13Zm6.29-.96l-7.45,4.49c-.2.13-.44.19-.68.18-.23,0-.45-.09-.64-.22-.19-.13-.33-.31-.42-.52-.1-.23-.12-.48-.06-.72l1.96-8.5L1.14,13.19c-.2-.16-.33-.38-.38-.62-.04-.22-.03-.44.02-.66.05-.22.18-.41.36-.54.2-.15.43-.24.68-.26l8.69-.76,3.37-8.01c.1-.23.27-.42.48-.54.39-.24.89-.24,1.28,0,.22.12.38.31.48.54l3.37,8.01,8.69.76c.25.02.48.11.68.26.18.13.31.32.36.54.05.22.06.44.02.66-.05.25-.18.46-.38.62l-6.57,5.73,1.96,8.49c.06.24.04.49-.06.72-.09.21-.24.39-.42.52-.19.13-.41.21-.64.22-.24.01-.48-.05-.68-.18l-7.45-4.49Z"/></g></svg>