<?xml version="1.0" encoding="UTF-8"?><svg id="Layer_1" xmlns="http://www.w3.org/2000/svg" xmlns:xlink="http://www.w3.org/1999/xlink" viewBox="0 0 100 100"><defs><style>.cls-1{fill:url(#linear-gradient);}.cls-2{fill:#fff;}.cls-3{fill:url(#linear-gradient-3);}.cls-4{fill:url(#linear-gradient-4);}.cls-5{fill:url(#linear-gradient-2);}.cls-6{isolation:isolate;}</style><linearGradient id="linear-gradient" x1="75.9" y1="152.6" x2="76.9" y2="152.21" gradientTransform="translate(-1015.61 5346.92) scale(13.45 -34.84)" gradientUnits="userSpaceOnUse"><stop offset="0" stop-color="#ffe89b"/><stop offset=".17" stop-color="#fee091"/><stop offset=".45" stop-color="#fdcd76"/><stop offset=".82" stop-color="#fbaf4c"/><stop offset="1" stop-color="#fb9e34"/></linearGradient><linearGradient id="linear-gradient-2" x1="77.74" y1="152.55" x2="76.71" y2="152.28" gradientTransform="translate(-958.29 5396.41) scale(13.56 -35.15)" xlink:href="#linear-gradient"/><linearGradient id="linear-gradient-3" x1="63.92" y1="156.13" x2="64.88" y2="156.13" gradientTransform="translate(-4554.42 10265.96) scale(71.52 -65.53)" xlink:href="#linear-gradient"/><linearGradient id="linear-gradient-4" x1="64.36" y1="139.04" x2="64.36" y2="138.47" gradientTransform="translate(-4618.91 1862.04) scale(72.56 -12.9)" gradientUnits="userSpaceOnUse"><stop offset="0" stop-color="#371378"/><stop offset="1" stop-color="#a65bf6"/></linearGradient></defs><g id="kingpad_logo_box"><g id="Group_29273"><g id="KINGPAD" class="cls-6"><g class="cls-6"><path class="cls-2" d="m21.92,88.8h1.93v3.83l3.53-3.83h2.37l-3.58,3.72,3.73,5.04h-2.32l-2.72-3.73-1.01,1.05v2.68h-1.93v-8.76Z"/><path class="cls-2" d="m31.15,88.8h1.93v8.76h-1.93v-8.76Z"/><path class="cls-2" d="m35.26,88.8h1.78l4.11,5.39v-5.39h1.9v8.76h-1.64l-4.24-5.57v5.57h-1.9v-8.76Z"/><path class="cls-2" d="m44.76,93.21v-.02c0-2.49,1.94-4.53,4.59-4.53,1.56,0,2.54.42,3.44,1.2l-1.21,1.46c-.66-.56-1.29-.89-2.29-.89-1.4,0-2.52,1.24-2.52,2.73v.03c0,1.6,1.1,2.78,2.65,2.78.71,0,1.33-.17,1.82-.53v-1.25h-1.94v-1.67h3.8v3.8c-.9.76-2.14,1.39-3.74,1.39-2.73,0-4.61-1.9-4.61-4.51Z"/></g><g class="cls-6"><path class="cls-2" d="m55.21,88.8h3.18c1.93,0,3.25.99,3.25,2.68v.03c0,1.85-1.58,2.79-3.42,2.79h-2.37v3.27h-.65v-8.76Zm3.05,4.89c1.63,0,2.73-.84,2.73-2.15v-.03c0-1.39-1.09-2.12-2.65-2.12h-2.48v4.29h2.4Z"/></g><g class="cls-6"><path class="cls-2" d="m66.03,88.74h.63l4.08,8.82h-.71l-1.11-2.45h-5.17l-1.11,2.45h-.68l4.08-8.82Zm2.6,5.78l-2.3-5.07-2.32,5.07h4.62Z"/><path class="cls-2" d="m72.59,88.8h2.92c2.75,0,4.66,1.89,4.66,4.36v.03c0,2.47-1.9,4.38-4.66,4.38h-2.92v-8.76Zm.65.6v7.56h2.27c2.44,0,3.98-1.67,3.98-3.76v-.02c0-2.07-1.54-3.78-3.98-3.78h-2.27Z"/></g></g><g id="Group_29272"><path id="Path_29929" class="cls-1" d="m26.82,36.37l-10.17-12.11c-.56-.67-1.55-.75-2.22-.19-.38.32-.58.79-.56,1.28l1.44,31.9,11.5-20.88h0Z"/><path id="Path_29930" class="cls-5" d="m87.05,57.54l1.46-32.2c.04-.87-.63-1.6-1.5-1.64-.49-.02-.96.18-1.28.56l-10.28,12.23,11.6,21.05h0Z"/></g><path id="Path_29931" class="cls-3" d="m85.42,63L52.57,3.11c-.42-.76-1.37-1.04-2.14-.62-.26.14-.48.36-.62.62L16.96,63c-.42.76-.14,1.72.62,2.14.23.13.49.2.76.19l32.85.05,32.85-.05c.87,0,1.57-.71,1.57-1.58,0-.26-.07-.52-.19-.76Zm-34.23-7.26c-6.25,0-11.32-5.07-11.32-11.32,0-6.25,5.07-11.32,11.32-11.32s11.32,5.07,11.32,11.32c0,6.25-5.07,11.32-11.32,11.32Z"/><path id="Path_29932" class="cls-4" d="m85.53,72.61c.75-.69.79-1.86.1-2.61-.35-.38-.84-.59-1.35-.59H18.11c-1.02,0-1.84.83-1.84,1.85,0,.51.21,1.01.59,1.35l9.44,8.73c.71.65,1.8.65,2.5,0l9.32-8.62c.71-.65,1.8-.65,2.5,0l9.32,8.62c.71.65,1.8.65,2.5,0l9.32-8.62c.71-.65,1.8-.65,2.5,0l9.32,8.62c.71.65,1.8.65,2.5,0l9.44-8.73h0Z"/></g></g></svg>