<?xml version="1.0" encoding="UTF-8"?><svg id="Layer_2" xmlns="http://www.w3.org/2000/svg" viewBox="0 0 54.06 21.33"><defs><style>.cls-1{fill:#fff;}.cls-2{fill:#5097ff;}</style></defs><g id="Layer_1-2"><g id="Group_30317"><path id="Path_31231" class="cls-2" d="m0,0h43.49c5.89.06,10.62,4.88,10.56,10.77-.06,5.81-4.75,10.51-10.56,10.56H0V0Z"/><path id="Path_31232" class="cls-1" d="m25.81,6.84h1.62v3.22l2.97-3.22h1.99l-3.01,3.13,3.14,4.24h-1.95l-2.28-3.14-.85.89v2.25h-1.62v-7.37Z"/><path id="Path_31233" class="cls-1" d="m35.15,11.31l-2.83-4.46h1.9l1.76,2.96,1.79-2.96h1.84l-2.83,4.43v2.94h-1.63v-2.91Z"/><path id="Path_31234" class="cls-1" d="m39.55,10.55v-.02c-.04-2.07,1.61-3.77,3.68-3.81.05,0,.11,0,.16,0,1.09-.05,2.14.36,2.91,1.14l-1.03,1.19c-.49-.51-1.17-.81-1.88-.83-1.21.02-2.16,1.02-2.14,2.23,0,.02,0,.05,0,.07v.02c-.07,1.21.85,2.24,2.06,2.31.03,0,.05,0,.08,0,.74,0,1.44-.32,1.94-.86l1.03,1.04c-1.42,1.61-3.87,1.77-5.48.35-.81-.72-1.29-1.74-1.32-2.82"/><path id="Path_31235" class="cls-1" d="m12.1,2.63c4.36,0,7.9,3.54,7.9,7.9s-3.54,7.9-7.9,7.9-7.9-3.54-7.9-7.9h0c0-4.36,3.54-7.9,7.9-7.9h0"/><path id="Path_31236" class="cls-2" d="m11.1,7.73l.93-2.27h.12l3.35,8.19c.18.45.44.87.75,1.25.28.33.54.5.75.5v.11h-4.09v-.11c.27,0,.46-.2.59-.59.05-.17.08-.34.08-.52,0-.29-.06-.58-.17-.85l-.42-1.03-.05-.12h0l-1.8-4.41-.06-.15Z"/><path id="Path_31237" class="cls-2" d="m11.94,12.85c-1.4.06-2.48,1.24-2.43,2.64.06-1.4-1.03-2.58-2.43-2.64,1.4-.06,2.48-1.24,2.43-2.64-.06,1.4,1.03,2.58,2.43,2.64"/></g></g></svg>